<?xml version="1.0" standalone="no"?>
<!DOCTYPE svg PUBLIC "-//W3C//DTD SVG 20010904//EN"
 "http://www.w3.org/TR/2001/REC-SVG-20010904/DTD/svg10.dtd">
<svg version="1.0" xmlns="http://www.w3.org/2000/svg"
 width="265.000000pt" height="263.000000pt" viewBox="0 0 265.000000 263.000000"
 preserveAspectRatio="xMidYMid meet">

<g transform="translate(0.000000,263.000000) scale(0.100000,-0.100000)"
fill="#000000" stroke="none">
<path d="M1255 2559 c-251 -21 -444 -70 -624 -157 -76 -37 -111 -61 -188 -135
-117 -112 -160 -165 -147 -182 5 -7 17 -24 28 -38 l18 -27 -45 -77 c-98 -167
-154 -367 -164 -578 -5 -106 -2 -136 21 -250 15 -72 42 -169 60 -216 38 -103
114 -239 133 -239 20 0 17 10 -36 111 -28 52 -63 135 -80 184 -44 131 -76 335
-53 335 4 0 39 -55 77 -121 39 -67 85 -134 103 -150 29 -26 40 -29 97 -29 36
0 65 -4 65 -8 0 -5 -14 -21 -31 -38 -57 -54 -71 -106 -48 -172 10 -29 8 -33
-26 -63 -39 -35 -125 -142 -125 -156 0 -19 178 -182 245 -225 90 -57 225 -109
400 -154 128 -32 156 -36 321 -41 207 -6 385 8 489 38 179 53 228 71 328 119
99 47 119 61 223 162 63 61 114 119 114 128 0 10 -37 55 -82 101 l-83 84 9 46
c12 62 3 92 -44 143 -22 24 -40 46 -40 50 0 3 20 6 45 6 52 0 103 18 125 45 8
10 47 74 85 143 39 69 76 127 83 130 9 3 11 -10 7 -55 -21 -202 -54 -325 -129
-476 -34 -67 -50 -110 -43 -114 33 -20 149 243 183 416 61 311 2 607 -181 917
-18 31 -18 32 3 59 35 44 28 65 -40 132 -201 196 -403 287 -753 340 -130 19
-190 22 -300 12z m483 -314 c3 -3 -12 -23 -33 -45 -24 -24 -33 -40 -24 -40 18
0 89 -47 89 -60 0 -4 -42 -22 -92 -38 -110 -36 -176 -59 -203 -72 -11 -5 -33
-14 -50 -20 l-30 -11 50 -25 c28 -14 66 -31 85 -39 126 -50 199 -82 218 -95
22 -15 22 -17 29 -461 l6 -446 -288 -6 c-159 -4 -359 -7 -445 -7 l-157 0 -6
332 c-4 182 -7 384 -7 449 l0 119 43 19 c154 70 248 113 289 132 l47 23 -57
21 c-63 25 -223 76 -292 95 l-45 12 35 30 c19 16 45 31 58 35 23 5 23 6 -14
44 -21 21 -35 41 -32 44 3 3 22 9 42 12 l36 6 0 -44 0 -44 98 0 c90 0 102 -2
165 -33 l68 -34 77 38 c72 36 82 39 169 39 l93 0 0 41 c0 22 3 43 6 46 6 6 63
-7 72 -17z m610 -302 c86 -148 147 -335 159 -489 3 -46 4 -84 1 -84 -3 0 -41
59 -83 130 -43 72 -91 141 -107 155 -32 27 -84 40 -128 31 -41 -8 -39 11 5 54
46 45 59 92 41 151 l-13 44 36 38 c19 20 38 37 43 37 4 0 25 -30 46 -67z
m-1940 14 c29 -30 31 -36 22 -67 -6 -19 -10 -54 -10 -78 0 -37 6 -49 45 -91
25 -26 45 -51 45 -55 0 -3 -25 -6 -55 -6 -97 0 -115 -18 -226 -227 -24 -46
-47 -83 -51 -83 -22 0 1 184 38 315 35 122 130 325 152 325 5 0 22 -15 40 -33z
m1329 -1479 c18 -18 33 -35 33 -39 0 -7 -55 -29 -71 -29 -5 0 -9 23 -9 50 0
28 3 50 7 50 4 0 22 -14 40 -32z m-727 -27 l0 -49 -40 10 -40 10 31 39 c17 22
35 39 40 39 5 0 9 -22 9 -49z"/>
<path d="M1304 2009 c-9 -15 12 -33 30 -26 9 4 16 13 16 22 0 17 -35 21 -46 4z"/>
<path d="M1225 1888 c-49 -22 -93 -44 -96 -50 -4 -6 -11 -8 -16 -5 -4 3 -19
-1 -33 -9 -14 -7 -20 -14 -15 -15 6 -1 -3 -5 -20 -9 -37 -9 393 -12 488 -3 72
6 84 17 40 35 -16 6 -41 16 -58 23 -126 54 -179 75 -189 74 -6 0 -51 -19 -101
-41z"/>
<path d="M1618 1803 c7 -3 16 -2 19 1 4 3 -2 6 -13 5 -11 0 -14 -3 -6 -6z"/>
<path d="M1130 1697 c0 -2 5 -18 11 -36 8 -24 17 -31 36 -31 17 0 23 -4 20
-14 -6 -16 11 -36 32 -36 11 0 10 4 -5 14 -18 14 -18 15 -1 21 19 8 23 25 5
25 -7 0 -21 11 -33 24 -17 21 -65 45 -65 33z"/>
<path d="M1152 1493 c-14 -6 -52 -75 -52 -96 0 -8 9 -17 20 -20 35 -9 34 -35
-1 -76 -24 -27 -42 -40 -62 -40 -16 -1 -30 -8 -34 -18 -10 -27 -9 -88 2 -93 6
-3 9 9 7 30 -3 42 10 65 32 57 10 -4 16 -19 16 -41 0 -26 4 -34 13 -30 8 3 20
-2 27 -11 7 -8 21 -15 32 -15 11 0 28 -5 39 -10 12 -7 19 -7 19 -1 0 6 9 15
20 21 19 10 20 9 14 -14 -5 -21 -3 -26 13 -26 10 0 23 -10 28 -22 6 -13 20
-27 33 -33 28 -13 28 -26 -3 -63 -27 -32 -31 -42 -15 -42 6 0 25 21 43 46 21
31 37 44 49 41 9 -3 19 0 21 7 2 6 8 8 12 3 11 -9 10 -65 0 -94 -5 -17 -3 -23
8 -23 14 0 31 42 26 66 -5 28 3 44 22 44 15 0 19 4 15 15 -3 8 -9 23 -13 32
-5 13 -3 15 13 8 10 -4 37 -10 59 -13 22 -2 48 -11 57 -19 16 -14 18 -14 24 1
4 11 -4 30 -24 54 -17 20 -48 62 -68 92 -20 30 -59 81 -86 112 -26 31 -48 61
-48 67 0 6 -13 20 -29 32 -16 12 -32 32 -35 45 -9 34 -35 30 -43 -6 -7 -39
-23 -48 -39 -24 -38 55 -73 73 -112 57z"/>
</g>
</svg>
